# xmcd
#
# Track frame offsets:
#	150
#	2498
#	17385
#	39139
#	52787
#	73604
#	92686
#	110596
#	118925
#	128210
#	163762
#	181749
#	196689
#	221615
#	236668
#	253198
#	272321
#	286546
#	306062
#	319477
#	335533
#	345738
#
# Disc length: 4753 seconds
#
# Revision: 0
# Processed by: cddbd v1.5.2PL0 Copyright (c) Steve Scherf et al.
# Submitted via: audiograbber 1.83.01
#
DISCID=29128f16
DTITLE=Kirk Rundstrom - Imperfect Spirals 1968-2007
DYEAR=2007
DGENRE=
TTITLE0=Music Box
TTITLE1=Take The Gun From The Shelf
TTITLE2=Lie Awake
TTITLE3=Crime of Loving You
TTITLE4=Whisper, Part 1
TTITLE5=Whisper, Part 2
TTITLE6=Whisper, Part 3
TTITLE7=Interlude
TTITLE8=Love Replaces
TTITLE9=Flower
TTITLE10=Jubilee
TTITLE11=Sedatives
TTITLE12=Last Call
TTITLE13=Win at All Costs
TTITLE14=Brothers in Arms
TTITLE15=Millions in Debt
TTITLE16=After All
TTITLE17=Hard 7
TTITLE18=Major Key
TTITLE19=One Too Many
TTITLE20=New York Second
TTITLE21=Saying Goes
EXTD=
EXTT0=
EXTT1=
EXTT2=
EXTT3=
EXTT4=
EXTT5=
EXTT6=
EXTT7=
EXTT8=
EXTT9=
EXTT10=
EXTT11=
EXTT12=
EXTT13=
EXTT14=
EXTT15=
EXTT16=
EXTT17=
EXTT18=
EXTT19=
EXTT20=
EXTT21=
PLAYORDER=
